<svg xmlns="http://www.w3.org/2000/svg" width="1279.997" height="1279.997" fill-rule="evenodd" clip-rule="evenodd" image-rendering="optimizeQuality" shape-rendering="geometricPrecision" text-rendering="geometricPrecision" viewBox="0 0 13333.33 13333.33" id="whatsapp-logo"><circle cx="6666.67" cy="6666.67" r="4225.38" fill="#fff"></circle><path fill="#3c3" fill-rule="nonzero" d="M6666.67 2276.1c2424.84,0 4390.56,1965.72 4390.56,4390.56 0,2424.84 -1965.72,4390.56 -4390.56,4390.56 -1212.39,0 -2310.04,-491.45 -3104.58,-1285.98 -794.54,-794.54 -1285.98,-1892.19 -1285.98,-3104.58 0,-2424.84 1965.75,-4390.56 4390.56,-4390.56zm4060.2 4390.56c0,-2242.37 -1817.83,-4060.2 -4060.2,-4060.2 -2242.37,0 -4060.2,1817.83 -4060.2,4060.2 0,1121.2 454.46,2136.28 1189.19,2871.01 734.73,734.73 1749.81,1189.19 2871.01,1189.19 2242.37,0 4060.2,-1817.83 4060.2,-4060.2z"></path><path fill="#3c3" d="M6713.3 8753.57c-441.01,0 -849.89,-132.7 -1194.18,-356.81l-831.82 263.57 268.95 -801.43c-259.97,-351.38 -414.19,-792.46 -414.19,-1263.98 0,-69.93 5.36,-136.26 14.34,-206.18 105.8,-1091.87 1034.52,-1945.26 2156.89,-1945.26 1140.23,0 2077.91,876.71 2165.7,1984.71 3.61,57.36 3.61,114.73 3.61,166.73 0,1188.68 -973.41,2158.64 -2169.31,2158.64zm2578.02 -2219.59c-34.02,-1385.9 -1174.25,-2495.69 -2578.02,-2495.69 -1387.8,0 -2519.06,1082.9 -2576.39,2447.28 -3.62,35.86 -3.62,75.3 -3.62,109.37 0,485.87 136.26,937.64 369.37,1326.73l-466.16 1373.37 1430.74 -453.6c369.37,202.57 795.94,315.54 1246.06,315.54 1425.24,0 2583.52,-1143.87 2583.52,-2562.04 0,-21.51 -5.5,-39.44 -5.5,-60.96z"></path><path fill="#3c3" d="M7393.68 6955.48c-62.88,-16.13 -102.22,-30.48 -147.06,35.87 -64.59,102.19 -200.83,326.3 -333.46,259.97 -66.31,-30.48 -268.86,-96.83 -510.93,-311.97 -188.29,-168.54 -317.31,-371.12 -351.5,-432.07 -55.49,-103.99 120.09,-213.36 184.69,-344.23 21.47,-43.04 12.54,-78.89 -5.33,-109.37 -12.54,-30.48 -139.84,-342.43 -193.62,-466.14 -52.06,-127.3 -105.83,-105.78 -139.84,-105.78 -351.5,0 -516.43,249.21 -516.43,598.81 0,69.92 14.43,145.24 35.91,211.57 62.7,224.11 202.55,405.19 224.2,435.67 30.41,43.02 435.68,695.63 1079.24,946.67 647.17,250.96 647.17,166.71 761.93,157.73 113.04,-8.92 372.97,-148.81 426.75,-299.41 52.06,-145.2 52.06,-272.52 34.02,-299.39 -21.47,-37.64 -548.56,-276.1 -548.56,-277.9z"></path></svg>